<svg xmlns="http://www.w3.org/2000/svg" xmlns:xlink="http://www.w3.org/1999/xlink" viewBox="0 0 354.8 70.92"><defs><style>.cls-1{fill:url(#linear-gradient);}.cls-2{fill:url(#linear-gradient-2);}.cls-3{fill:url(#linear-gradient-3);}.cls-4{fill:url(#New_Gradient_Swatch_2);}.cls-5{fill:url(#New_Gradient_Swatch_2-2);}.cls-6{fill:url(#New_Gradient_Swatch_2-3);}.cls-7{fill:url(#linear-gradient-4);}.cls-8{fill:url(#linear-gradient-5);}.cls-9{fill:url(#linear-gradient-6);}.cls-10{fill:url(#linear-gradient-7);}.cls-11{fill:url(#linear-gradient-8);}.cls-12{fill:url(#linear-gradient-9);}.cls-13{fill:url(#linear-gradient-10);}.cls-14{fill:url(#linear-gradient-11);}.cls-15{fill:url(#linear-gradient-12);}.cls-16{fill:url(#linear-gradient-13);}</style><linearGradient id="linear-gradient" x1="141.61" y1="70.29" x2="141.69" y2="49.98" gradientUnits="userSpaceOnUse"><stop offset="0.12" stop-color="#fff"/><stop offset="0.72" stop-color="#7b7b7b"/></linearGradient><linearGradient id="linear-gradient-2" x1="135.08" y1="44.18" x2="135.79" y2="17.2" gradientUnits="userSpaceOnUse"><stop offset="0.07" stop-color="#fff"/><stop offset="0.52" stop-color="#7b7b7b"/></linearGradient><linearGradient id="linear-gradient-3" x1="138.39" y1="22.45" x2="138.52" y2="4.61" gradientUnits="userSpaceOnUse"><stop offset="0.38" stop-color="#fff"/><stop offset="0.89" stop-color="#7b7b7b"/></linearGradient><linearGradient id="New_Gradient_Swatch_2" x1="306.49" y1="46.93" x2="345.89" y2="27.09" gradientUnits="userSpaceOnUse"><stop offset="0.1" stop-color="#ffdc89"/><stop offset="0.26" stop-color="#9cd3aa"/><stop offset="0.44" stop-color="#8ba9d8"/><stop offset="0.61" stop-color="#8380bd"/><stop offset="0.79" stop-color="#c5a5ce"/><stop offset="0.94" stop-color="#c36e91"/></linearGradient><linearGradient id="New_Gradient_Swatch_2-2" x1="346.35" y1="65.58" x2="291.97" y2="54.27" xlink:href="#New_Gradient_Swatch_2"/><linearGradient id="New_Gradient_Swatch_2-3" x1="346.78" y1="23.82" x2="305.87" y2="8.07" xlink:href="#New_Gradient_Swatch_2"/><linearGradient id="linear-gradient-4" x1="94.21" y1="76.33" x2="94.89" y2="3.36" gradientUnits="userSpaceOnUse"><stop offset="0.12" stop-color="#fff"/><stop offset="0.64" stop-color="#9d9d9d"/></linearGradient><linearGradient id="linear-gradient-5" x1="50.94" y1="28.13" x2="93.76" y2="51" xlink:href="#linear-gradient-4"/><linearGradient id="linear-gradient-6" x1="211.86" y1="60.69" x2="192.92" y2="16.08" gradientUnits="userSpaceOnUse"><stop offset="0.12" stop-color="#fff"/><stop offset="0.66" stop-color="#616161"/></linearGradient><linearGradient id="linear-gradient-7" x1="183.36" y1="3.49" x2="182.4" y2="59.51" gradientUnits="userSpaceOnUse"><stop offset="0.08" stop-color="#fff"/><stop offset="0.68" stop-color="#616161"/></linearGradient><linearGradient id="linear-gradient-8" x1="219.79" y1="10.34" x2="219.81" y2="66.19" gradientUnits="userSpaceOnUse"><stop offset="0" stop-color="#fff"/><stop offset="0.47" stop-color="#616161"/></linearGradient><linearGradient id="linear-gradient-9" x1="260.75" y1="69.78" x2="261.36" y2="41.7" gradientUnits="userSpaceOnUse"><stop offset="0" stop-color="#fff"/><stop offset="0.23" stop-color="#d8d8d8"/><stop offset="0.86" stop-color="#6f6f6f"/></linearGradient><linearGradient id="linear-gradient-10" x1="253.23" y1="25.02" x2="253.71" y2="0.46" gradientTransform="translate(10)" gradientUnits="userSpaceOnUse"><stop offset="0.1" stop-color="#fff"/><stop offset="0.27" stop-color="#d8d8d8"/><stop offset="0.72" stop-color="#6f6f6f"/></linearGradient><linearGradient id="linear-gradient-11" x1="30.87" y1="68.62" x2="30.96" y2="48.67" xlink:href="#linear-gradient"/><linearGradient id="linear-gradient-12" x1="23.35" y1="42.58" x2="24.05" y2="15.7" xlink:href="#linear-gradient-2"/><linearGradient id="linear-gradient-13" x1="26.66" y1="20.82" x2="26.79" y2="2.98" xlink:href="#linear-gradient-3"/></defs><g id="Layer_2" data-name="Layer 2"><g id="Layer_7" data-name="Layer 7"><path class="cls-1" d="M164.34,61c0,1.81,1.74,3.27,3.89,3.28h0v2.62a1,1,0,0,1-1.06.89H119.49c-2.44,0-4.43-1.66-4.43-3.72V54.18c0-6.12,5.91-11.08,13.19-11.08a15.11,15.11,0,0,1,3,.29V54.18h36a1,1,0,0,1,1.06.89V57.7h0C166.08,57.7,164.34,59.16,164.34,61Z"/><path class="cls-2" d="M153.77,34.22a3.23,3.23,0,0,0,3.15,3.29h0v2.62a.88.88,0,0,1-.86.9h-27a14.56,14.56,0,0,0-2.11-.15,15.18,15.18,0,0,0-2.14.15c-6.3.85-11.13,5.43-11.13,10.95V28.88c0-6.13,6-11.1,13.27-11.1h3v9.64h26.08a.88.88,0,0,1,.86.89V31h0A3.22,3.22,0,0,0,153.77,34.22Z"/><path class="cls-3" d="M161.31,8.51c0,1.83,1.75,3.31,3.92,3.32h0v2.66a1,1,0,0,1-1.07.9H125c-7.32,0-13.27,5-13.27,11.23V5.41c0-2.09,2-3.78,4.46-3.78h48a1,1,0,0,1,1.07.9V5.2h0C163.06,5.21,161.31,6.68,161.31,8.51Z"/><path class="cls-4" d="M345.65,31.14l-.62.53c-.94.8-.86.76-1.63,1.43s-1.93,1.7-5,4.37c-4,3.49-5.41,4.65-10,8.57l-.09.07-4.71,4.07H305.57a4.32,4.32,0,0,1-3.14-1.56,4,4,0,0,1-.07-4.19l7-5.74,10.44-8.56,5.71-4.66h16.59a4.61,4.61,0,0,1,3.5,1.82A4,4,0,0,1,345.65,31.14Z"/><path class="cls-5" d="M348.21,66l.09,4.54-40.93,0c-.89,0-7.7-.23-11.83-5.62a14,14,0,0,1-2.66-10.33,10.55,10.55,0,0,1,1.06-2.56,8.31,8.31,0,0,1,.85-1.21,15.36,15.36,0,0,1,2.3-2.12c.34-.3,1.07-.89,2.14-1.79l.13-.11a4,4,0,0,0,.07,4.2,4.32,4.32,0,0,0,3.14,1.56h18.05l27.59,0c0,1.54.09,3.08.13,4.63a4.41,4.41,0,1,0-.13,8.82Z"/><path class="cls-6" d="M353.85,22.86a11.19,11.19,0,0,1-2.42,2.87c-.36.36-.67.64-1.31,1.23s-1.41,1.3-1.88,1.71a4.12,4.12,0,0,0-.05-4,4.65,4.65,0,0,0-3.54-1.86H322.83l-24.4.1c0-1.71,0-3.41,0-5.12a4.14,4.14,0,1,0,.06-8.28l0-5.09h42.11a15.53,15.53,0,0,1,9.72,4.28C353.83,12.2,356.22,18.3,353.85,22.86Z"/><path class="cls-7" d="M104.37,55.32a11.67,11.67,0,0,1-.33,3.76,9.17,9.17,0,0,1-.73,1.7c-2.18,3.84-7.14,5.9-11.27,5.93a13.77,13.77,0,0,1-7.72-2.43,3.17,3.17,0,0,0,1-.63c1.36-1.25,1.51-3.61,1.53-4V36.78q0-17.49,0-35l4.51-.17c0,3.13,1.81,5.72,4,5.89,2.39.18,4.53-2.41,4.57-5.72,1.48-.05,2.95-.08,4.44-.12q0,26,0,51.89c0,.19,0,.6,0,1.16C104.37,54.94,104.37,55.12,104.37,55.32Z"/><path class="cls-8" d="M83.86,38.73V56.48a5.92,5.92,0,0,1-1.53,3.82,3.07,3.07,0,0,1-1,.6,18.1,18.1,0,0,1-1.78-1.31L51.07,31.1l3.47-3.5a4,4,0,1,0,5.61-5.7q1.76-1.77,3.48-3.54,8.24,8.28,16.44,16.57l.09.1c1.11,1.12,2.22,2.22,3.31,3.33v0Z"/><path class="cls-9" d="M207.28,60.18l-.45-.69c-.68-1.07-.65-1-1.22-1.84s-1.45-2.17-3.73-5.64c-3-4.54-4-6.08-7.3-11.19l-.06-.1-3.47-5.29V15.15a5.66,5.66,0,0,1,1.33-3.53,2.73,2.73,0,0,1,3.58-.08q2.43,3.95,4.88,7.88l7.3,11.73c1.32,2.15,2.65,4.28,4,6.41V56.2c0,.25-.13,2.75-1.55,3.93A2.71,2.71,0,0,1,207.28,60.18Z"/><path class="cls-10" d="M176.75,67.59l-4,.11,0-48.65c0-1.06.2-9.15,4.95-14,3.4-3.51,7.7-3.65,9.12-3.17A8.16,8.16,0,0,1,189,3.09a7.45,7.45,0,0,1,1.06,1A16.4,16.4,0,0,1,192,6.83c.27.41.79,1.27,1.58,2.54,0,.06.07.1.1.16a2.79,2.79,0,0,0-3.71.08,6.08,6.08,0,0,0-1.37,3.74V34.8q0,16.39,0,32.79l-4.08.16c0-2.93-1.63-5.37-3.66-5.53S176.79,64.48,176.75,67.59Z"/><path class="cls-11" d="M214.38,68.54a11,11,0,0,1-2.47-2.71c-.31-.4-.56-.74-1.06-1.46s-1.12-1.58-1.48-2.1a2.87,2.87,0,0,0,3.4-.05c1.48-1.19,1.6-3.7,1.61-4V39.53c0-1.83,0-3.65,0-5.48v-.17q0-13.61-.09-27.25l4.42,0c-.07,2.61,1.54,4.81,3.52,4.84s3.64-2.14,3.61-4.76l4.38,0v47c-.11,1.8-.6,6.87-3.68,10.86S218.31,71.18,214.38,68.54Z"/><path class="cls-12" d="M270.41,20.32V38.7l0,0c0,1.79,0,3.58,0,5.37v.16q0,13.35.09,26.71l-5.11,0a4.17,4.17,0,1,0-8.26-.07l-5.08,0V19.85Z"/><path class="cls-13" d="M240.56,10.85c0,1.8-1.75,3.26-3.91,3.27h0v2.61a1,1,0,0,0,1.06.89h39.17c7.33,0,13.27,4.95,13.27,11.05V7.8c0-2.06-2-3.72-4.45-3.72h-48a1,1,0,0,0-1.06.89V7.59h0C238.81,7.6,240.56,9.05,240.56,10.85Z"/><path class="cls-14" d="M53.61,59.46c0,1.77,1.74,3.2,3.89,3.21h0v2.57a1,1,0,0,1-1.06.88H8.75c-2.44,0-4.43-1.63-4.43-3.65V52.79c0-6,5.91-10.87,13.19-10.87a15.92,15.92,0,0,1,3,.28V52.79h36a1,1,0,0,1,1.06.88v2.58h0C55.35,56.26,53.61,57.68,53.61,59.46Z"/><path class="cls-15" d="M42,32.66a3.22,3.22,0,0,0,3.15,3.27h0v2.62a.88.88,0,0,1-.86.89h-27a14.56,14.56,0,0,0-2.11-.15,15.18,15.18,0,0,0-2.14.15C6.83,40.29,2,44.86,2,50.36v-23c0-6.11,6-11.07,13.27-11.07h3v9.61H44.34a.88.88,0,0,1,.86.89V29.4h0A3.2,3.2,0,0,0,42,32.66Z"/><path class="cls-16" d="M49.58,6.88c0,1.83,1.75,3.31,3.92,3.32h0v2.66a1,1,0,0,1-1.07.9H13.27C6,13.76,0,18.79,0,25V3.78C0,1.69,2,0,4.46,0h48a1,1,0,0,1,1.07.9V3.57h0C51.33,3.58,49.58,5.05,49.58,6.88Z"/></g></g></svg>